<svg width="51" height="50" viewBox="0 0 51 50" fill="none" xmlns="http://www.w3.org/2000/svg">
<path d="M25.5 4.6875C21.4022 4.6875 17.3965 5.87881 13.9893 8.11077C10.5821 10.3427 7.92653 13.5151 6.35838 17.2267C4.79023 20.9384 4.37993 25.0225 5.17936 28.9628C5.9788 32.903 7.95207 36.5224 10.8496 39.3631C13.7472 42.2039 17.4389 44.1384 21.458 44.9222C25.477 45.706 29.6429 45.3037 33.4287 43.7663C37.2146 42.2289 40.4504 39.6254 42.727 36.285C45.0036 32.9446 46.2188 29.0174 46.2188 25C46.2124 19.6147 44.0275 14.4518 40.1434 10.6438C36.2592 6.83578 30.993 4.69372 25.5 4.6875ZM32.1443 26.1612L24.1755 33.1924C24.02 33.3298 23.8384 33.4358 23.6411 33.5044C23.4438 33.5729 23.2346 33.6027 23.0256 33.592C22.8165 33.5812 22.6117 33.5302 22.4227 33.4419C22.2338 33.3535 22.0644 33.2295 21.9244 33.077C21.7843 32.9245 21.6763 32.7464 21.6065 32.5529C21.5367 32.3594 21.5064 32.1543 21.5174 31.9494C21.5285 31.7444 21.5806 31.5436 21.6708 31.3584C21.761 31.1732 21.8876 31.0073 22.0433 30.8701L28.6953 25L22.0433 19.1299C21.7294 18.8527 21.5406 18.4645 21.5186 18.0509C21.4965 17.6372 21.6429 17.2319 21.9255 16.924C22.2082 16.6162 22.604 16.431 23.0259 16.4091C23.4479 16.3873 23.8614 16.5306 24.1755 16.8076L32.1443 23.8388C32.3103 23.9853 32.4431 24.1644 32.534 24.3644C32.6249 24.5644 32.6719 24.781 32.6719 25C32.6719 25.219 32.6249 25.4355 32.534 25.6356C32.4431 25.8356 32.3103 26.0147 32.1443 26.1612Z" fill="white"/>
</svg>
