<svg width="16" height="16" viewBox="0 0 16 16" fill="none" xmlns="http://www.w3.org/2000/svg">
<path fill-rule="evenodd" clip-rule="evenodd" d="M11.2288 4.36523C10.4028 3.57743 9.30045 3.14825 8.1599 3.16589C6.07283 3.16589 4.30028 4.57393 3.66827 6.46993C3.33316 7.46349 3.33316 8.53941 3.66827 9.53298H3.6712C4.30615 11.4261 6.07576 12.8341 8.16285 12.8341C9.2402 12.8341 10.1651 12.5585 10.8819 12.0718V12.0698C11.7256 11.5113 12.3018 10.6324 12.4811 9.63882H8.15991V6.55817H15.7058C15.7998 7.09316 15.8439 7.63992 15.8439 8.18374C15.8439 10.617 14.9743 12.6742 13.4613 14.0675L13.4629 14.0687C12.1371 15.2916 10.3175 16 8.15991 16C5.1351 16 2.36898 14.2951 1.0109 11.5936C-0.123755 9.33309 -0.123752 6.66985 1.01091 4.40934C2.36899 1.70495 5.1351 -1.02058e-05 8.1599 -1.02058e-05C10.147 -0.0235266 12.0666 0.72312 13.5128 2.08119L11.2288 4.36523Z" fill="white"/>
</svg>
