<svg width="452" height="32" viewBox="0 0 452 32" fill="none" xmlns="http://www.w3.org/2000/svg">
<line x1="210" y1="16.5" y2="16.5" stroke="url(#paint0_linear)"/>
<line x1="452" y1="16.5" x2="242" y2="16.5" stroke="url(#paint1_linear)"/>
<path d="M242 16C242 24.8366 234.837 32 226 32C217.163 32 210 24.8366 210 16C210 7.16344 217.163 0 226 0C234.837 0 242 7.16344 242 16ZM211.6 16C211.6 23.9529 218.047 30.4 226 30.4C233.953 30.4 240.4 23.9529 240.4 16C240.4 8.0471 233.953 1.6 226 1.6C218.047 1.6 211.6 8.0471 211.6 16Z" fill="white"/>
<path d="M222.304 22.112C221.248 22.112 220.277 21.8667 219.392 21.376C218.507 20.8747 217.803 20.1867 217.28 19.312C216.768 18.4267 216.512 17.4293 216.512 16.32C216.512 15.2107 216.768 14.2187 217.28 13.344C217.803 12.4587 218.507 11.7707 219.392 11.28C220.277 10.7893 221.248 10.544 222.304 10.544C223.371 10.544 224.341 10.7893 225.216 11.28C226.101 11.7707 226.8 12.4587 227.312 13.344C227.824 14.2187 228.08 15.2107 228.08 16.32C228.08 17.4293 227.824 18.4267 227.312 19.312C226.8 20.1867 226.101 20.8747 225.216 21.376C224.331 21.8667 223.36 22.112 222.304 22.112ZM222.304 19.2C223.104 19.2 223.733 18.9387 224.192 18.416C224.661 17.8933 224.896 17.1947 224.896 16.32C224.896 15.424 224.661 14.72 224.192 14.208C223.733 13.6853 223.104 13.424 222.304 13.424C221.493 13.424 220.859 13.6853 220.4 14.208C219.941 14.72 219.712 15.424 219.712 16.32C219.712 17.2053 219.941 17.9093 220.4 18.432C220.859 18.944 221.493 19.2 222.304 19.2ZM232.626 14.608C232.978 14.096 233.404 13.6907 233.906 13.392C234.407 13.0933 234.946 12.944 235.522 12.944V16.288H234.642C233.959 16.288 233.452 16.4213 233.122 16.688C232.791 16.9547 232.626 17.4187 232.626 18.08V22H229.49V13.024H232.626V14.608Z" fill="white"/>
<defs>
<linearGradient id="paint0_linear" x1="210" y1="16" x2="0" y2="16" gradientUnits="userSpaceOnUse">
<stop stop-color="white"/>
<stop offset="1" stop-color="white" stop-opacity="0"/>
</linearGradient>
<linearGradient id="paint1_linear" x1="452" y1="16" x2="242" y2="16" gradientUnits="userSpaceOnUse">
<stop stop-color="white" stop-opacity="0"/>
<stop offset="1" stop-color="white"/>
</linearGradient>
</defs>
</svg>
