<svg width="31" height="31" viewBox="0 0 31 31" fill="none" xmlns="http://www.w3.org/2000/svg">
<rect width="31" height="31" rx="7" fill="#4E4E4E"/>
<path fill-rule="evenodd" clip-rule="evenodd" d="M10 5C8.93913 5 7.92172 5.42143 7.17157 6.17157C6.42143 6.92172 6 7.93913 6 9V21C6 22.0609 6.42143 23.0783 7.17157 23.8284C7.92172 24.5786 8.93913 25 10 25H22C23.0609 25 24.0783 24.5786 24.8284 23.8284C25.5786 23.0783 26 22.0609 26 21V9C26 7.93913 25.5786 6.92172 24.8284 6.17157C24.0783 5.42143 23.0609 5 22 5H10ZM8 9C8 8.46957 8.21071 7.96086 8.58579 7.58579C8.96086 7.21071 9.46957 7 10 7H22C22.5304 7 23.0391 7.21071 23.4142 7.58579C23.7893 7.96086 24 8.46957 24 9V21C24 21.5304 23.7893 22.0391 23.4142 22.4142C23.0391 22.7893 22.5304 23 22 23H10C9.46957 23 8.96086 22.7893 8.58579 22.4142C8.21071 22.0391 8 21.5304 8 21V9ZM13 14C13 13.7348 12.8946 13.4804 12.7071 13.2929C12.5196 13.1054 12.2652 13 12 13C11.7348 13 11.4804 13.1054 11.2929 13.2929C11.1054 13.4804 11 13.7348 11 14V20C11 20.2652 11.1054 20.5196 11.2929 20.7071C11.4804 20.8946 11.7348 21 12 21C12.2652 21 12.5196 20.8946 12.7071 20.7071C12.8946 20.5196 13 20.2652 13 20V14ZM13.5 10.5C13.5 10.8978 13.342 11.2794 13.0607 11.5607C12.7794 11.842 12.3978 12 12 12C11.6022 12 11.2206 11.842 10.9393 11.5607C10.658 11.2794 10.5 10.8978 10.5 10.5C10.5 10.1022 10.658 9.72064 10.9393 9.43934C11.2206 9.15804 11.6022 9 12 9C12.3978 9 12.7794 9.15804 13.0607 9.43934C13.342 9.72064 13.5 10.1022 13.5 10.5ZM16 13C16.34 13 16.64 13.17 16.82 13.428C17.3354 13.1471 17.913 12.9999 18.5 13C20.66 13 22 14.926 22 16.571V20C22 20.2652 21.8946 20.5196 21.7071 20.7071C21.5196 20.8946 21.2652 21 21 21C20.7348 21 20.4804 20.8946 20.2929 20.7071C20.1054 20.5196 20 20.2652 20 20V16.57C20 15.802 19.34 14.999 18.5 14.999C17.976 14.999 17.397 15.284 17 15.962V20C17 20.2652 16.8946 20.5196 16.7071 20.7071C16.5196 20.8946 16.2652 21 16 21C15.7348 21 15.4804 20.8946 15.2929 20.7071C15.1054 20.5196 15 20.2652 15 20V14C15 13.7348 15.1054 13.4804 15.2929 13.2929C15.4804 13.1054 15.7348 13 16 13Z" fill="white"/>
</svg>
