<svg width="51" height="92" viewBox="0 0 51 92" fill="none" xmlns="http://www.w3.org/2000/svg">
<path d="M32.4425 85.5797L21.7877 6.62497V58.0548L0 44.668V54.0934L21.7877 66.3874V79.8425L0 66.4557V75.3347L27.6615 91.9999L32.4425 85.5797Z" fill="#044981"/>
<path d="M32.4425 85.5797L21.7877 6.62497V58.0548L0 44.668V54.0934L21.7877 66.3874V79.8425L0 66.4557V75.3347L27.6615 91.9999L32.4425 85.5797Z" fill="#012B3E"/>
<path fill-rule="evenodd" clip-rule="evenodd" d="M32.4424 85.5798V58.4648L50.337 44.1218L49.9272 12.5672L27.6614 3.05176e-05L21.7876 6.62512L32.4424 85.5798ZM32.7839 44.5999V13.3868L43.7119 19.2606V38.1797L32.7839 44.5999Z" fill="#6CE1D7"/>
<path fill-rule="evenodd" clip-rule="evenodd" d="M32.4424 85.5798V58.4648L50.337 44.1218L49.9272 12.5672L27.6614 3.05176e-05L21.7876 6.62512L32.4424 85.5798ZM32.7839 44.5999V13.3868L43.7119 19.2606V38.1797L32.7839 44.5999Z" fill="#01E1FF"/>
</svg>
