<svg width="111" height="86" viewBox="0 0 111 86" fill="none" xmlns="http://www.w3.org/2000/svg">
<path d="M109.347 0.533203H1.39342C0.733853 0.533203 0.201782 1.06527 0.201782 1.72484V84.4998C0.201782 85.1594 0.733853 85.6915 1.39342 85.6915H109.346C110.006 85.6915 110.538 85.1594 110.538 84.4998V1.72484C110.539 1.06527 110.007 0.533203 109.347 0.533203ZM35.1394 83.1721H17.4487V74.3586H35.1394V83.1721ZM64.2439 83.1721H46.552V74.3586H64.2439V83.1721ZM93.2921 83.1721H75.6013V74.3586H93.2921V83.1721ZM108.154 83.3069H95.6766V73.1657C95.6766 72.5062 95.1445 71.9741 94.4849 71.9741H74.4085C73.7489 71.9741 73.2168 72.5062 73.2168 73.1657V83.3069H66.6285V73.1657C66.6285 72.5062 66.0964 71.9741 65.4368 71.9741H45.3603C44.7094 71.9741 44.1687 72.5062 44.1687 73.1657V83.3069H37.5252V73.1657C37.5252 72.5062 36.9931 71.9741 36.3335 71.9741H16.2558C15.5963 71.9741 15.0642 72.5062 15.0642 73.1657V83.3069H2.58629V16.4524H108.154V83.3069ZM108.154 14.0679H2.58629V2.91771H108.154V14.0679Z" fill="#19B5FE"/>
<path d="M35.1394 83.1721H17.4487V74.3586H35.1394V83.1721Z" fill="#19B5FE"/>
<path d="M64.2439 83.1721H46.552V74.3586H64.2439V83.1721Z" fill="#19B5FE"/>
<path d="M93.2921 83.1721H75.6013V74.3586H93.2921V83.1721Z" fill="#19B5FE"/>
<path d="M8.44642 10.6462C9.66788 10.6462 10.6581 9.65601 10.6581 8.43455C10.6581 7.21309 9.66788 6.2229 8.44642 6.2229C7.22496 6.2229 6.23477 7.21309 6.23477 8.43455C6.23477 9.65601 7.22496 10.6462 8.44642 10.6462Z" fill="#19B5FE"/>
<path d="M15.8096 10.6462C17.0311 10.6462 18.0212 9.65601 18.0212 8.43455C18.0212 7.21309 17.0311 6.2229 15.8096 6.2229C14.5881 6.2229 13.5979 7.21309 13.5979 8.43455C13.5979 9.65601 14.5881 10.6462 15.8096 10.6462Z" fill="#19B5FE"/>
<path d="M23.1225 10.6462C24.3439 10.6462 25.3341 9.65601 25.3341 8.43455C25.3341 7.21309 24.3439 6.2229 23.1225 6.2229C21.901 6.2229 20.9108 7.21309 20.9108 8.43455C20.9108 9.65601 21.901 10.6462 23.1225 10.6462Z" fill="#19B5FE"/>
<path d="M36.3311 66.7071H16.2546C15.5963 66.7071 15.063 66.1738 15.063 65.5154V45.439C15.063 44.7806 15.5963 44.2473 16.2546 44.2473H36.3311C36.9894 44.2473 37.5227 44.7806 37.5227 45.439V65.5154C37.5227 66.1738 36.9894 66.7071 36.3311 66.7071ZM17.4475 64.3238H35.1394V46.6318H17.4475V64.3238Z" fill="#19B5FE"/>
<path d="M17.4475 64.3238H35.1394V46.6318H17.4475V64.3238Z" fill="#19B5FE"/>
<path d="M65.4392 66.7071H45.364C44.7057 66.7071 44.1724 66.1738 44.1724 65.5154V45.439C44.1724 44.7806 44.7057 44.2473 45.364 44.2473H65.4405C66.0988 44.2473 66.6321 44.7806 66.6321 45.439V65.5154C66.6321 66.1738 66.0976 66.7071 65.4392 66.7071ZM46.5556 64.3238H64.2476V46.6318H46.5556V64.3238Z" fill="#19B5FE"/>
<path d="M46.5556 64.3238H64.2476V46.6318H46.5556V64.3238Z" fill="#19B5FE"/>
<path d="M94.4861 66.7071H74.4097C73.7513 66.7071 73.218 66.1738 73.218 65.5154V45.439C73.218 44.7806 73.7513 44.2473 74.4097 44.2473H94.4861C95.1445 44.2473 95.6778 44.7806 95.6778 45.439V65.5154C95.6778 66.1738 95.1445 66.7071 94.4861 66.7071ZM75.6025 64.3238H93.2945V46.6318H75.6025V64.3238Z" fill="#19B5FE"/>
<path d="M75.6025 64.3238H93.2945V46.6318H75.6025V64.3238Z" fill="#19B5FE"/>
<path d="M55.3986 21.0056C50.3598 21.0056 46.259 25.2021 46.259 30.3683C46.259 35.526 50.3598 39.7311 55.3986 39.7311C60.4447 39.7311 64.5382 35.5272 64.5382 30.3683C64.5382 25.2021 60.4447 21.0056 55.3986 21.0056ZM55.3986 37.3466C54.3332 37.3466 53.3156 37.0842 52.4182 36.6232C52.8866 35.3752 54.0635 34.5097 55.3986 34.5097C56.7336 34.5097 57.9179 35.3764 58.3948 36.6232C57.4888 37.0842 56.4713 37.3466 55.3986 37.3466ZM55.3986 32.1251C54.7304 32.1251 54.1591 31.2989 54.1591 30.3132C54.1591 29.3361 54.7316 28.5012 55.3986 28.5012C56.0741 28.5012 56.6466 29.3361 56.6466 30.3132C56.6454 31.2976 56.0741 32.1251 55.3986 32.1251ZM60.3257 35.1374C59.8415 34.2154 59.1182 33.4529 58.2428 32.9196C58.7357 32.2048 59.0299 31.2976 59.0299 30.3119C59.0299 27.9998 57.4006 26.1155 55.3973 26.1155C53.4027 26.1155 51.7734 27.9985 51.7734 30.3119C51.7734 31.2976 52.0676 32.2036 52.5605 32.9196C51.6863 33.4517 50.9544 34.2154 50.4702 35.1374C49.3337 33.882 48.6423 32.2122 48.6423 30.3683C48.6423 26.5212 51.6778 23.3901 55.3973 23.3901C59.1243 23.3901 62.1524 26.5212 62.1524 30.3683C62.1537 32.2122 61.4622 33.8807 60.3257 35.1374Z" fill="#19B5FE"/>
</svg>
