<svg width="102" height="79" viewBox="0 0 102 79" fill="none" xmlns="http://www.w3.org/2000/svg">
<path d="M79.6348 27.5852H91.4347V39.6885C91.4384 40.0009 91.3553 40.3082 91.1946 40.5761C91.0338 40.844 90.8018 41.062 90.5244 41.2057L74.5777 49.6679V32.6423C74.5777 31.3011 75.1105 30.0148 76.0588 29.0664C77.0072 28.118 78.2935 27.5852 79.6348 27.5852Z" fill="#19B5FE"/>
<path d="M96.4918 27.5852H79.6348C78.2935 27.5852 77.0072 28.118 76.0588 29.0664C75.1105 30.0148 74.5777 31.3011 74.5777 32.6423V73.0992C74.5777 74.4404 75.1105 75.7267 76.0588 76.6751C77.0072 77.6235 78.2935 78.1563 79.6348 78.1563H96.4918C97.833 78.1563 99.1193 77.6235 100.068 76.6751C101.016 75.7267 101.549 74.4404 101.549 73.0992V32.6423C101.549 31.3011 101.016 30.0148 100.068 29.0664C99.1193 28.118 97.833 27.5852 96.4918 27.5852ZM89.749 71.4135H86.3776C85.9305 71.4135 85.5017 71.2359 85.1856 70.9197C84.8695 70.6036 84.6919 70.1748 84.6919 69.7278C84.6919 69.2807 84.8695 68.8519 85.1856 68.5358C85.5017 68.2197 85.9305 68.0421 86.3776 68.0421H89.749C90.1961 68.0421 90.6248 68.2197 90.9409 68.5358C91.2571 68.8519 91.4347 69.2807 91.4347 69.7278C91.4347 70.1748 91.2571 70.6036 90.9409 70.9197C90.6248 71.2359 90.1961 71.4135 89.749 71.4135Z" fill="#19B5FE"/>
<path d="M40.8636 64.6705V22.5279C40.8636 20.2925 41.7516 18.1487 43.3323 16.568C44.9129 14.9874 47.0567 14.0994 49.2921 14.0994H86.3776C88.2012 14.0994 89.9757 14.6909 91.4347 15.7851V5.67088C91.4347 4.32965 90.9019 3.04335 89.9535 2.09496C89.0051 1.14657 87.7188 0.61377 86.3776 0.61377H5.46385C4.12262 0.61377 2.83632 1.14657 1.88793 2.09496C0.939539 3.04335 0.406738 4.32965 0.406738 5.67088V59.6134C0.406738 60.9546 0.939539 62.2409 1.88793 63.1893C2.83632 64.1377 4.12262 64.6705 5.46385 64.6705H33.6488L31.1202 74.7847H25.6923C25.2452 74.7847 24.8164 74.9623 24.5003 75.2784C24.1842 75.5945 24.0066 76.0233 24.0066 76.4704C24.0066 76.9175 24.1842 77.3462 24.5003 77.6624C24.8164 77.9785 25.2452 78.1561 25.6923 78.1561H72.8919C71.7977 76.6971 71.2062 74.9227 71.2062 73.099V32.6421C71.2062 30.4067 72.0942 28.2629 73.6749 26.6823C75.2556 25.1016 77.3994 24.2136 79.6348 24.2136H91.4347V22.5279C91.4347 21.1867 90.9019 19.9004 89.9535 18.952C89.0051 18.0036 87.7188 17.4708 86.3776 17.4708H49.2921C47.9509 17.4708 46.6646 18.0036 45.7162 18.952C44.7678 19.9004 44.235 21.1867 44.235 22.5279V73.099C44.248 73.6732 44.3503 74.242 44.5384 74.7847H34.5928L37.1213 64.6705H40.8636ZM59.4063 68.0419H66.1491C66.5962 68.0419 67.025 68.2195 67.3411 68.5356C67.6572 68.8517 67.8348 69.2805 67.8348 69.7276C67.8348 70.1747 67.6572 70.6034 67.3411 70.9195C67.025 71.2357 66.5962 71.4133 66.1491 71.4133H59.4063C58.9593 71.4133 58.5305 71.2357 58.2144 70.9195C57.8982 70.6034 57.7206 70.1747 57.7206 69.7276C57.7206 69.2805 57.8982 68.8517 58.2144 68.5356C58.5305 68.2195 58.9593 68.0419 59.4063 68.0419Z" fill="#19B5FE"/>
</svg>
